<svg width="183" height="129" viewBox="0 0 183 129" fill="none" xmlns="http://www.w3.org/2000/svg">
<path d="M4.09321 99.1057V75.4144L27.7845 67.476L44.7777 40.9318L39.5681 11.6588L60.9027 2.604L79.7565 18.2328L110.518 2.604L122.798 37.5828L144.504 21.5819L179.607 43.2885L160.133 89.6788V114.238H125.651L102.952 105.68L72.6863 125.154L2.72879 101.462" stroke="white" stroke-width="3"/>
<path d="M7.69034 102.058L37.4495 94.7315M37.4495 94.7315L30.0722 67.1651H59.2062L78.5872 94.7315M37.4495 94.7315H78.5872M37.4495 94.7315L71.8351 125.775L78.5872 94.7315M78.5872 94.7315L100.719 73.1254L97.2179 40.9645L66.3334 34.3834M66.3334 34.3834L78.5872 18.9859M66.3334 34.3834L42.0759 11.6597" stroke="white" stroke-width="3"/>
<path d="M46.1422 40.3125L100.843 71.9422" stroke="white" stroke-width="3"/>
<path d="M66.7325 35.7231L44.0335 39.5683" stroke="white" stroke-width="3"/>
<path d="M59.0422 5.82959L66.9806 33.9863" stroke="white" stroke-width="3"/>
<path d="M59.6624 65.7411L96.9979 41.6777" stroke="white" stroke-width="3"/>
<path d="M103.696 106.921C103.696 104.936 101.753 83.1468 100.843 71.3219L133.589 80.0045L158.273 53.8325L177.375 44.1575L123.79 37.8315L155.544 51.4757L158.273 90.7959L127.387 111.634L132.845 81.493L103.696 106.921Z" stroke="white" stroke-width="3"/>
<path d="M156.99 113.179L133.837 80.0044" stroke="white" stroke-width="3"/>
<path d="M101.835 70.2062L123.418 37.4601L78.144 20.0947" stroke="white" stroke-width="3"/>
<path d="M111.262 4.71338L97.618 44.4056L120.193 35.971" stroke="white" stroke-width="3"/>
<path d="M78.5162 17.6138L98.7344 43.0416" stroke="white" stroke-width="3"/>
<circle cx="78.02" cy="95.1372" r="3.84518" fill="white"/>
<circle cx="38.3278" cy="94.1455" r="3.84518" fill="white"/>
<circle cx="3.84518" cy="76.0361" r="3.84518" fill="white"/>
<circle cx="28.9008" cy="67.1045" r="3.84518" fill="white"/>
<circle cx="59.6624" cy="67.1045" r="3.84518" fill="white"/>
<circle cx="100.843" cy="71.8183" r="3.84518" fill="white"/>
<circle cx="103.572" cy="106.301" r="3.84518" fill="white"/>
<circle cx="126.643" cy="112.999" r="3.84518" fill="white"/>
<circle cx="133.093" cy="80.0049" r="3.84518" fill="white"/>
<circle cx="158.807" cy="113.374" r="3.84518" fill="white"/>
<circle cx="158.645" cy="90.4233" r="3.84518" fill="white"/>
<circle cx="156.66" cy="53.7085" r="3.84518" fill="white"/>
<circle cx="178.739" cy="44.2817" r="3.84518" fill="white"/>
<circle cx="143.76" cy="21.459" r="3.84518" fill="white"/>
<circle cx="123.418" cy="36.5908" r="3.84518" fill="white"/>
<circle cx="110.766" cy="3.84518" r="3.84518" fill="white"/>
<circle cx="79.7566" cy="18.7295" r="3.84518" fill="white"/>
<circle cx="59.1662" cy="4.58933" r="3.84518" fill="white"/>
<circle cx="40.3124" cy="11.5356" r="3.84518" fill="white"/>
<circle cx="65.8643" cy="34.1103" r="3.84518" fill="white"/>
<circle cx="44.0336" cy="39.5683" r="3.84518" fill="white"/>
<circle cx="96.8738" cy="43.0415" r="3.84518" fill="white"/>
<circle cx="74.2989" cy="55.9414" r="3.84518" fill="white"/>
<circle cx="72.0662" cy="125.155" r="3.84518" fill="white"/>
<circle cx="4.83746" cy="100.348" r="3.84518" fill="white"/>
</svg>
